# xmcd
#
# Track frame offsets:
# 150
# 10730
# 25511
# 35675
# 48758
# 60217
# 73544
# 84375
# 94066
# 104129
# 114305
# 123980
# 136458
# 149850
# 164416
# 181458
# 189856
#
# Disc length: 2656 seconds
#
#
# Revision: 2
# Processed by: cddbd v1.5.1PL0 Copyright (c) Steve Scherf et al.
# Submitted via: FreeRIP 2.90 
#
DISCID=e20a5e11
DTITLE=Roy Orbison - Roy Orbison Country
DYEAR=1900
DGENRE=Country
TTITLE0=Lonesome Number One
TTITLE1=Oh Such a Stranger
TTITLE2=(I'd Be) a Legend in My Time
TTITLE3=I'm a Southern Man
TTITLE4=Belinda
TTITLE5=Under Suspician
TTITLE6=No Chain At All
TTITLE7=Can't Way
TTITLE8=I'm Hurting
TTITLE9=The Same Street
TTITLE10=Blue Blue Day
TTITLE11=Too Soon To Know
TTITLE12=I Don't Really Want You
TTITLE13=Old Love Song
TTITLE14=Born To Love You
TTITLE15=Big Hearted Me
TTITLE16=What About Me
EXTD=
EXTT0=
EXTT1=
EXTT2=
EXTT3=
EXTT4=
EXTT5=
EXTT6=
EXTT7=
EXTT8=
EXTT9=
EXTT10=
EXTT11=
EXTT12=
EXTT13=
EXTT14=
EXTT15=
EXTT16=
PLAYORDER=
